<?xml version="1.0" encoding="UTF-8" standalone="no"?>
<!-- Created with Inkscape (http://www.inkscape.org/) -->

<svg
   xmlns:dc="http://purl.org/dc/elements/1.1/"
   xmlns:cc="http://creativecommons.org/ns#"
   xmlns:rdf="http://www.w3.org/1999/02/22-rdf-syntax-ns#"
   xmlns:svg="http://www.w3.org/2000/svg"
   xmlns="http://www.w3.org/2000/svg"
   xmlns:sodipodi="http://sodipodi.sourceforge.net/DTD/sodipodi-0.dtd"
   xmlns:inkscape="http://www.inkscape.org/namespaces/inkscape"
   width="45mm"
   height="45mm"
   viewBox="0 0 44.999995 45.000001"
   version="1.1"
   id="svg1370"
   inkscape:version="0.92.2 2405546, 2018-03-11"
   sodipodi:docname="juno_logo.svg"
   inkscape:export-filename="/home/pfitzseb/Documents/juno_logo.png"
   inkscape:export-xdpi="337.2352"
   inkscape:export-ydpi="337.2352">
  <defs
     id="defs1364">
    <inkscape:perspective
       sodipodi:type="inkscape:persp3d"
       inkscape:vp_x="0 : 22.5 : 1"
       inkscape:vp_y="0 : 1000 : 0"
       inkscape:vp_z="44.999995 : 22.5 : 1"
       inkscape:persp3d-origin="22.499997 : 15 : 1"
       id="perspective822" />
    <inkscape:path-effect
       effect="skeletal"
       id="path-effect1678-4"
       is_visible="true"
       pattern="m -412.29614,26.032967 c 0.81614,-2.3842 40.82457,-2.6451 61.26553,-2.6451 20.44095,0 59.64173,0.0655 61.26552,2.6451 -1.43276,2.38853 -40.82457,2.6451 -61.26552,2.6451 -20.44096,0 -60.653,-0.34473 -61.26553,-2.6451 z"
       copytype="single_stretched"
       prop_scale="0.58068953"
       scale_y_rel="false"
       spacing="0"
       normal_offset="0"
       tang_offset="0"
       prop_units="false"
       vertical_pattern="false"
       fuse_tolerance="0" />
    <inkscape:path-effect
       effect="skeletal"
       id="path-effect1662-2"
       is_visible="true"
       pattern="m -412.29614,26.032967 c 0.81614,-2.3842 40.82457,-2.6451 61.26553,-2.6451 20.44095,0 59.64173,0.0655 61.26552,2.6451 -1.43276,2.38853 -40.82457,2.6451 -61.26552,2.6451 -20.44096,0 -60.653,-0.34473 -61.26553,-2.6451 z"
       copytype="single_stretched"
       prop_scale="0.58068953"
       scale_y_rel="false"
       spacing="0"
       normal_offset="0"
       tang_offset="0"
       prop_units="false"
       vertical_pattern="false"
       fuse_tolerance="0" />
    <inkscape:path-effect
       effect="skeletal"
       id="path-effect1650-6"
       is_visible="true"
       pattern="m -412.29614,26.032967 c 0.81614,-2.3842 40.82457,-2.6451 61.26553,-2.6451 20.44095,0 59.64173,0.0655 61.26552,2.6451 -1.43276,2.38853 -40.82457,2.6451 -61.26552,2.6451 -20.44096,0 -60.653,-0.34473 -61.26553,-2.6451 z"
       copytype="single_stretched"
       prop_scale="0.58068953"
       scale_y_rel="false"
       spacing="0"
       normal_offset="0"
       tang_offset="0"
       prop_units="false"
       vertical_pattern="false"
       fuse_tolerance="0" />
  </defs>
  <sodipodi:namedview
     id="base"
     pagecolor="#ffffff"
     bordercolor="#666666"
     borderopacity="1.0"
     inkscape:pageopacity="0.0"
     inkscape:pageshadow="2"
     inkscape:zoom="3.959798"
     inkscape:cx="9.786214"
     inkscape:cy="89.335507"
     inkscape:document-units="mm"
     inkscape:current-layer="layer1"
     showgrid="false"
     inkscape:window-width="2560"
     inkscape:window-height="1412"
     inkscape:window-x="0"
     inkscape:window-y="28"
     inkscape:window-maximized="1"
     fit-margin-left="3"
     fit-margin-top="3"
     fit-margin-right="3"
     fit-margin-bottom="3"
     showguides="true"
     inkscape:guide-bbox="true">
    <sodipodi:guide
       position="22.517456,31.337354"
       orientation="1,0"
       id="guide818"
       inkscape:locked="false" />
    <sodipodi:guide
       position="25.824918,22.550866"
       orientation="0,1"
       id="guide820"
       inkscape:locked="false" />
  </sodipodi:namedview>
  <metadata
     id="metadata1367">
    <rdf:RDF>
      <cc:Work
         rdf:about="">
        <dc:format>image/svg+xml</dc:format>
        <dc:type
           rdf:resource="http://purl.org/dc/dcmitype/StillImage" />
        <dc:title></dc:title>
      </cc:Work>
    </rdf:RDF>
  </metadata>
  <g
     inkscape:label="Layer 1"
     inkscape:groupmode="layer"
     id="layer1"
     transform="translate(-6.641652,-0.36921291)">
    <path
       inkscape:original-d="m 26.769159,8.8950112 c -1.70166,-1.4118747 -3.29761,-2.1700587 -4.57984,-2.0738917 -0.3414,0.02561 -0.65713,0.109739 -0.95054,0.259237 -3.12965,1.594639 -2.12984,9.8418935 2.23808,18.4144245 4.36792,8.572535 10.44569,14.228093 13.57534,12.633455 3.00975,-1.533541 2.19741,-9.218516 -1.75416,-17.429328"
       inkscape:path-effect="#path-effect1650-6"
       inkscape:connector-curvature="0"
       d="m 26.769159,8.8950112 c -0.365743,0.2390119 -2.317879,-1.6800833 -4.5091,-1.1307829 -0.206092,0.040959 -0.405682,0.112127 -0.561012,0.2194607 -0.45956,0.2213968 -0.69087,0.8956248 -0.909756,1.7202568 -0.232103,1.1372182 -0.131802,2.3783442 0.06864,3.8076162 0.58641,3.936161 2.126768,7.703887 3.970836,11.294389 1.05021,2.012936 2.059398,3.70351 3.087552,5.184671 1.010668,1.455972 2.282253,3.053368 3.85161,4.517033 0.957036,0.875033 1.950051,1.708456 3.022518,2.138963 0.691822,0.212972 1.337434,0.415221 1.597709,0.178355 0,0 0,-10e-7 0,-10e-7 0.336192,-0.04823 0.59306,-0.638673 0.848219,-1.278893 0.327125,-1.041411 0.311594,-2.276102 0.243039,-3.495046 -0.387379,-5.961782 -2.65838,-10.663818 -2.181377,-11.352133 0.517653,0.02448 3.837802,4.432042 4.752573,11.089375 0.195478,1.345425 0.26514,2.886508 -0.111552,4.482334 -0.219518,1.13382 -0.915699,2.341525 -2.234523,3.137897 -2e-6,0 -3e-6,10e-7 -3e-6,2e-6 -1.466705,0.64761 -2.936689,0.508048 -4.038115,-0.0071 -1.60657,-0.658389 -2.910644,-1.668471 -3.971004,-2.666689 -1.782376,-1.648712 -3.19686,-3.405804 -4.301776,-4.986799 -1.11898,-1.601119 -2.205515,-3.432713 -3.265577,-5.565923 -1.904497,-3.774662 -3.455253,-7.953961 -3.877577,-12.353809 -0.163768,-1.581099 -0.13537,-3.158127 0.28617,-4.6780424 0.28771,-1.2299543 1.07836,-2.3478717 2.250313,-2.9565623 0.449957,-0.2012542 0.905422,-0.2908112 1.332964,-0.297623 4.006034,0.098471 4.514414,3.2732199 4.649231,2.9990189 z"
       style="fill:#aa79c1;fill-opacity:1;stroke:#9558b2;stroke-width:0.69999999;stroke-linecap:square;stroke-linejoin:round;stroke-miterlimit:1;stroke-dasharray:none;stroke-dashoffset:0;stroke-opacity:1"
       id="path1000-5" />
    <path
       inkscape:original-d="m 42.444319,27.318077 c 2.48711,-0.964824 4.01645,-2.285431 4.09593,-3.802134 0.18383,-3.50768 -7.44975,-6.755083 -17.05775,-7.258618 -0.90075,-0.04721 -1.78647,-0.07205 -2.65285,-0.06913 -8.37499,0.02819 -14.91232,2.32562 -15.07892,5.504452 -0.0793,1.513728 1.29978,2.981534 3.66388,4.19963"
       inkscape:path-effect="#path-effect1662-2"
       inkscape:connector-curvature="0"
       d="m 42.444319,27.318077 c -0.03558,-0.274826 0.475815,-0.681457 1.302946,-1.34551 0.730579,-0.586538 1.976889,-1.545209 1.70743,-2.513513 0.0377,-0.479686 -0.427317,-0.99494 -1.015197,-1.585268 -0.864013,-0.764875 -1.990736,-1.294552 -3.302827,-1.828991 -4.005215,-1.589073 -8.305409,-2.062479 -11.730799,-2.253384 0,0 -0.0038,-2.09e-4 -0.0038,-2.09e-4 0,0 -2e-6,0 -2e-6,0 -0.7934,-0.04146 -1.662759,-0.07059 -2.567291,-0.06935 0,0 -1e-6,0 -1e-6,0 -3.279039,0.01739 -6.843571,0.25623 -10.146474,1.356736 -1.138639,0.392142 -2.108648,0.783897 -2.857053,1.379735 -0.524838,0.465382 -0.937881,0.884511 -0.956344,1.293234 -0.367913,0.886562 0.6936,1.929444 1.346887,2.59671 0.735572,0.75131 1.208779,1.229753 1.192798,1.544023 -0.180105,0.148007 -0.9342,0.13082 -1.982208,-0.385988 -0.959039,-0.472935 -2.54941,-1.606966 -2.759433,-3.870124 0.06405,-1.218395 0.648043,-2.32201 1.522828,-3.070706 1.041184,-0.953922 2.273614,-1.609556 3.551538,-2.094026 3.710933,-1.443287 7.638756,-1.802657 11.077139,-1.814128 0,0 1e-6,0 1e-6,0 0.9764,-0.0068 1.901235,0.02214 2.738394,0.06613 0,0 10e-7,0 10e-7,0 1e-6,0 0.004,1.96e-4 0.004,1.96e-4 3.585309,0.17702 8.253244,0.767762 12.657917,2.763903 1.435005,0.636579 2.804556,1.451524 3.930781,2.597034 0.929031,0.867205 1.511219,2.133349 1.451394,3.487263 -0.451917,2.282526 -2.22767,3.244173 -3.229542,3.60338 -1.112287,0.398794 -1.821396,0.321309 -1.93308,0.142853 z"
       style="fill:#60ad51;fill-opacity:1;stroke:#389826;stroke-width:0.69999999;stroke-linecap:round;stroke-miterlimit:4;stroke-dasharray:none;stroke-opacity:1"
       id="path1002-5" />
    <path
       inkscape:original-d="m 39.756899,14.122944 c 0.5842,-2.973326 0.2575,-5.2298798 -1.12335,-6.1266192 -0.46029,-0.2989113 -1.01213,-0.4297133 -1.63319,-0.4061373 -3.35376,0.127323 -8.76519,4.7450845 -13.1865,11.5533015 -5.24006,8.069002 -7.10224,16.155737 -4.15642,18.068778 1.39834,0.908092 3.62659,0.264364 6.1439,-1.529496"
       inkscape:path-effect="#path-effect1678-4"
       inkscape:label="path3773"
       inkscape:connector-curvature="0"
       d="m 39.756899,14.122944 c -0.26384,-0.124896 -0.326122,-0.854355 -0.431404,-2.056248 -0.09298,-1.061512 -0.208775,-2.8472461 -1.301818,-3.1312449 0,8e-7 -10e-7,-2e-7 -10e-7,-2e-7 -0.236455,-0.1364035 -0.589015,-0.1614915 -0.977312,-0.1334496 -10e-7,2e-7 -10e-7,10e-8 -10e-7,10e-8 -1.794942,0.085679 -3.351546,1.5199446 -5.293999,3.1462356 -2.829691,2.557278 -5.022384,5.534117 -6.650323,8.031806 -1.1e-5,1.6e-5 -0.02806,0.04356 -0.02807,0.04358 -1.857006,2.885138 -3.968909,6.636866 -5.00905,10.784658 -0.328938,1.365734 -0.5583,2.590044 -0.440163,3.730835 0.137961,0.800967 0.276334,1.470298 0.668157,1.694609 0.674752,0.873093 2.302222,0.278325 3.330357,-0.07247 1.157765,-0.39502 1.884749,-0.644756 2.178069,-0.478485 0.04862,0.238209 -0.376039,0.986085 -1.455114,1.778472 -0.985448,0.723634 -2.975941,1.754049 -5.299107,0.690836 -1.153462,-0.774155 -1.828015,-2.00785 -1.976188,-3.263516 -0.26034,-1.5997 -0.105964,-3.191986 0.225414,-4.717356 0.983658,-4.71173 3.23516,-8.807931 5.199508,-11.818611 -1.7e-5,2.6e-5 0.02984,-0.04569 0.02983,-0.04566 1.706506,-2.636748 4.115269,-5.820734 7.343908,-8.524033 1.943748,-1.747107 4.296756,-3.3005648 7.085461,-3.386312 0.795459,-0.016376 1.594489,0.2149263 2.278099,0.6764305 1.928475,1.6947217 1.768062,3.9592765 1.511247,5.1232665 -0.285805,1.295388 -0.771037,1.926536 -0.987494,1.926657 z"
       style="opacity:1;fill:#d5635c;fill-opacity:1;stroke:#cb3c33;stroke-width:0.69999999;stroke-linecap:round;stroke-miterlimit:4;stroke-dasharray:none;stroke-opacity:1"
       id="path1004-0" />
  </g>
</svg>
